<svg id="Layer_1" xmlns="http://www.w3.org/2000/svg" xmlns:xlink="http://www.w3.org/1999/xlink" viewBox="0 0 48 48"><defs><style>.cls-1{fill:url(#linear-gradient);}.cls-2{fill:url(#linear-gradient-3);}.cls-3{fill:url(#linear-gradient-4);}.cls-4{fill:url(#linear-gradient-2);}.cls-5{fill:url(#linear-gradient-5);}</style><linearGradient id="linear-gradient" x1="5.309" y1="11.573" x2="55.089" y2="49.996" gradientUnits="userSpaceOnUse"><stop offset="0" stop-color="#edf1f2" id="id_106"></stop><stop offset="1" stop-color="#c6cbcc" id="id_107"></stop></linearGradient><linearGradient id="linear-gradient-2" x1="16.228" y1="31.163" x2="37.564" y2="31.522" gradientUnits="userSpaceOnUse"><stop offset="0" stop-color="#c6cbcc" id="id_108"></stop><stop offset="1" stop-color="#9fa5a6" id="id_109"></stop></linearGradient><linearGradient id="linear-gradient-3" x1="18.583" y1="16.746" x2="24.445" y2="20.24" gradientUnits="userSpaceOnUse"><stop offset="0" stop-color="#dde32d" id="id_110"></stop><stop offset="1" stop-color="#c48c08" id="id_111"></stop></linearGradient><linearGradient id="linear-gradient-4" x1="25.044" y1="5.413" x2="31.135" y2="9.12" gradientUnits="userSpaceOnUse"><stop offset="0" stop-color="#ebbb0c" id="id_112"></stop><stop offset="1" stop-color="#de7207" id="id_113"></stop></linearGradient><linearGradient id="linear-gradient-5" x1="23.477" y1="8.015" x2="29.647" y2="11.716" gradientTransform="translate(21.796 -18.054) rotate(60.002)" xlink:href="#linear-gradient"></linearGradient></defs><rect class="cls-1" x="3" y="10" width="42" height="32" rx="5" ry="5" id="id_101"></rect><path class="cls-4" d="M19.504,34.099c-1.776,0-3.556-.492-5.12-1.487l-.242-.154c-.466-.296-.603-.915-.307-1.381,.296-.465,.915-.604,1.381-.307l.242,.154c2.681,1.708,6.17,1.542,8.679-.409,2.883-2.243,6.857-2.636,10.124-1.002l3.186,1.593c.494,.247,.694,.848,.447,1.342-.247,.494-.847,.694-1.342,.447l-3.186-1.593c-2.583-1.291-5.723-.981-8.002,.792-1.711,1.331-3.783,2.005-5.861,2.005Z" id="id_102"></path><path class="cls-2" d="M14.536,32.635c-.55,0-1.083-.231-1.463-.634-.379-.402-.57-.931-.536-1.488l.159-2.641c.046-.77,.274-1.531,.661-2.201L25.002,5.5c.535-.926,1.531-1.5,2.601-1.5,.524,0,1.042,.139,1.498,.402l.866,.5c.694,.401,1.19,1.048,1.398,1.822s.101,1.583-.3,2.277l-11.645,20.17c-.386,.668-.931,1.247-1.575,1.673l-2.208,1.458c-.331,.218-.71,.333-1.1,.333Z" id="id_103"></path><path class="cls-3" d="M29.966,4.902l-.866-.5c-.456-.263-.974-.402-1.498-.402-1.07,0-2.066,.575-2.601,1.5l-1.45,2.512,6.062,3.5,1.45-2.511c.401-.694,.508-1.503,.3-2.277s-.704-1.421-1.398-1.822Z" id="id_104"></path><rect class="cls-5" x="25.533" y="6.348" width="2" height="7" transform="translate(4.738 27.903) rotate(-60.002)" id="id_105"></rect></svg>